REM DIRINDEX 1\6,1\2\7,1\2\8,1\2\9,1\3\10,1\3\11,1\4\12,1\4\13,1\4\14,1\5\15,1\5\16,1\5\17
REM DIRNAME folder01,folder02,folder03,folder04,folder05,folder06,folder07,folder08,folder09,folder10,folder11,folder12,folder13,folder14,folder15,folder16,folder17
TITLE ""
FILE "3Q_t_0190-0205.mp3" MP3
  TRACK 01 AUDIO
    TITLE "10:cjc041_1984"
    INDEX 01 00:00:00
  TRACK 02 AUDIO
    TITLE "0:"
    INDEX 01 00:01:28
  TRACK 03 AUDIO
    TITLE "11:cjc041_1985"
    INDEX 01 00:02:10
  TRACK 04 AUDIO
    TITLE "0:"
    INDEX 01 00:03:74
  TRACK 05 AUDIO
    TITLE "10:cjc041_1986"
    INDEX 01 00:04:50
  TRACK 06 AUDIO
    TITLE "0:"
    INDEX 01 00:05:61
  TRACK 07 AUDIO
    TITLE "11:cjc041_1987"
    INDEX 01 00:06:35
  TRACK 08 AUDIO
    TITLE "0:"
    INDEX 01 00:08:46
  TRACK 09 AUDIO
    TITLE "10:cjc041_1988"
    INDEX 01 00:09:26
  TRACK 10 AUDIO
    TITLE "0:"
    INDEX 01 00:10:31
  TRACK 11 AUDIO
    TITLE "11:cjc041_1989"
    INDEX 01 00:11:13
  TRACK 12 AUDIO
    TITLE "0:"
    INDEX 01 00:12:20
  TRACK 13 AUDIO
    TITLE "10:cjc041_1990"
    INDEX 01 00:12:73
  TRACK 14 AUDIO
    TITLE "0:"
    INDEX 01 00:14:07
  TRACK 15 AUDIO
    TITLE "11:cjc041_1991"
    INDEX 01 00:14:58
  TRACK 16 AUDIO
    TITLE "0:"
    INDEX 01 00:16:61
  TRACK 17 AUDIO
    TITLE "10:cjc041_1992"
    INDEX 01 00:17:37
  TRACK 18 AUDIO
    TITLE "0:"
    INDEX 01 00:18:39
  TRACK 19 AUDIO
    TITLE "11:cjc041_1993"
    INDEX 01 00:19:24
  TRACK 20 AUDIO
    TITLE "0:"
    INDEX 01 00:20:10
  TRACK 21 AUDIO
    TITLE "10:cjc041_1994"
    INDEX 01 00:20:65
  TRACK 22 AUDIO
    TITLE "0:"
    INDEX 01 00:22:25
  TRACK 23 AUDIO
    TITLE "11:cjc041_1995"
    INDEX 01 00:22:74
  TRACK 24 AUDIO
    TITLE "0:"
    INDEX 01 00:24:16
  TRACK 25 AUDIO
    TITLE "10:cjc041_1996"
    INDEX 01 00:24:69
  TRACK 26 AUDIO
    TITLE "0:"
    INDEX 01 00:26:07
  TRACK 27 AUDIO
    TITLE "11:cjc041_1997"
    INDEX 01 00:26:60
  TRACK 28 AUDIO
    TITLE "0:"
    INDEX 01 00:27:67
  TRACK 29 AUDIO
    TITLE "10:cjc041_1998"
    INDEX 01 00:28:45
  TRACK 30 AUDIO
    TITLE "0:"
    INDEX 01 00:29:56
  TRACK 31 AUDIO
    TITLE "11:cjc041_1999"
    INDEX 01 00:30:34
  TRACK 32 AUDIO
    TITLE "0:"
    INDEX 01 00:31:22
  TRACK 33 AUDIO
    TITLE "10:cjc041_2000"
    INDEX 01 00:32:00
  TRACK 34 AUDIO
    TITLE "0:"
    INDEX 01 00:33:11
  TRACK 35 AUDIO
    TITLE "11:cjc041_2001"
    INDEX 01 00:33:66
  TRACK 36 AUDIO
    TITLE "0:"
    INDEX 01 00:35:14
  TRACK 37 AUDIO
    TITLE "10:cjc041_2002"
    INDEX 01 00:35:72
  TRACK 38 AUDIO
    TITLE "0:"
    INDEX 01 00:37:10
  TRACK 39 AUDIO
    TITLE "11:cjc041_2003"
    INDEX 01 00:37:69
  TRACK 40 AUDIO
    TITLE "0:"
    INDEX 01 00:39:00
  TRACK 41 AUDIO
    TITLE "10:cjc041_2004"
    INDEX 01 00:39:56
  TRACK 42 AUDIO
    TITLE "0:"
    INDEX 01 00:41:04
  TRACK 43 AUDIO
    TITLE "11:cjc041_2005"
    INDEX 01 00:41:59
  TRACK 44 AUDIO
    TITLE "0:"
    INDEX 01 00:42:55
  TRACK 45 AUDIO
    TITLE "10:cjc041_2006"
    INDEX 01 00:43:35
  TRACK 46 AUDIO
    TITLE "0:"
    INDEX 01 00:44:40
  TRACK 47 AUDIO
    TITLE "11:cjc041_2007"
    INDEX 01 00:45:26
  TRACK 48 AUDIO
    TITLE "0:"
    INDEX 01 00:46:13
  TRACK 49 AUDIO
    TITLE "10:cjc041_2008"
    INDEX 01 00:46:72
  TRACK 50 AUDIO
    TITLE "0:"
    INDEX 01 00:48:10
  TRACK 51 AUDIO
    TITLE "11:cjc041_2009"
    INDEX 01 00:48:67
  TRACK 52 AUDIO
    TITLE "0:"
    INDEX 01 00:50:05
  TRACK 53 AUDIO
    TITLE "10:cjc041_2010"
    INDEX 01 00:50:60
  TRACK 54 AUDIO
    TITLE "0:"
    INDEX 01 00:52:04
  TRACK 55 AUDIO
    TITLE "11:cjc041_2011"
    INDEX 01 00:52:57
  TRACK 56 AUDIO
    TITLE "0:"
    INDEX 01 00:54:13
  TRACK 57 AUDIO
    TITLE "10:cjc041_2012"
    INDEX 01 00:54:66
  TRACK 58 AUDIO
    TITLE "0:"
    INDEX 01 00:56:08
  TRACK 59 AUDIO
    TITLE "11:cjc041_2013"
    INDEX 01 00:56:65
  TRACK 60 AUDIO
    TITLE "0:"
    INDEX 01 00:57:74
  TRACK 61 AUDIO
    TITLE "10:cjc041_2014"
    INDEX 01 00:58:56
  TRACK 62 AUDIO
    TITLE "0:"
    INDEX 01 00:59:71
  TRACK 63 AUDIO
    TITLE "11:cjc041_2015"
    INDEX 01 01:00:53
  TRACK 64 AUDIO
    TITLE "0:"
    INDEX 01 01:01:58
